<svg xmlns="http://www.w3.org/2000/svg" viewBox="0 0 914 390" role="img" aria-label="Besmara">
  <path fill="#0b9197" fill-rule="evenodd" transform="translate(0.33189932,0.75483882)" d="M 123.19656,265.62736 c -2.5444,-3.63979 -4.46788,-6.7761 -4.27441,-6.96958 0.19348,-0.19347 10.00296,-0.83434 21.79886,-1.42416 44.65918,-2.23302 56.05726,-6.00959 64.18378,-21.26625 1.85036,-3.47386 2.25024,-5.81735 2.25614,-13.2222 0.006,-7.62759 -0.37262,-9.74366 -2.4834,-13.87677 -2.76088,-5.40607 -9.09106,-11.48502 -14.76185,-14.17599 -3.33661,-1.58332 -3.52155,-1.86566 -1.86828,-2.85226 5.91985,-3.53268 10.52145,-7.98522 13.14142,-12.71572 2.68656,-4.85073 2.97928,-6.26354 2.97928,-14.37926 0,-8.11756 -0.29415,-9.53642 -3,-14.47097 -1.83009,-3.33746 -4.9082,-6.90815 -7.89317,-9.15631 -8.0516,-6.06412 -15.19188,-7.7968 -39.06654,-9.47995 -11.57216,-0.81583 -24.29842,-1.72594 -28.28058,-2.02246 l -7.24029,-0.53913 4.61092,-6.46163 c 2.536,-3.55389 4.44414,-6.60631 4.24029,-6.78316 -0.20385,-0.17684 -6.22063,1.87948 -13.37063,4.5696 -7.15,2.69012 -19.412499,7.19178 -27.249999,10.00368 -7.8375,2.81191 -14.25,5.41031 -14.25,5.77421 0,0.36391 9.3375,4.19658 20.75,8.51705 11.412499,4.32047 23.787499,9.09279 27.499999,10.60515 3.7125,1.51237 6.75,2.43132 6.75,2.04212 0,-0.3892 -2.01968,-3.57583 -4.48818,-7.08141 -2.46849,-3.50557 -4.38099,-6.46864 -4.25,-6.58459 0.43085,-0.38137 29.01881,1.4964 39.73818,2.61016 15.35126,1.59502 22.71519,5.67208 24.9815,13.83108 3.21381,11.57011 -2.52275,21.96028 -13.86387,25.11053 -4.1814,1.16148 -68.1199,1.4112 -68.11333,0.26603 0.002,-0.4125 1.80237,-3.12163 4,-6.02029 4.72075,-6.22662 5.05139,-7.80025 1.2457,-5.92865 -1.5125,0.74383 -14.087918,5.57996 -27.945374,10.74697 -13.857457,5.167 -25.045797,9.54413 -24.862979,9.72695 0.659279,0.65928 55.067263,20.901 55.422433,20.61913 0.20024,-0.15891 -1.69719,-3.2376 -4.21651,-6.84152 l -4.58059,-6.55259 23.21651,-0.25 c 48.79099,-0.52539 50.96766,-0.29289 57.73982,6.16746 7.85931,7.49745 7.90695,19.17712 0.11161,27.36286 -5.79834,6.08873 -10.07054,6.84988 -51.88492,9.2441 -6.1875,0.35428 -11.25,0.37413 -11.25,0.0441 0,-0.33002 2.01867,-3.37428 4.48593,-6.76502 2.46726,-3.39074 4.30907,-6.34183 4.09293,-6.55798 -0.21615,-0.21614 -1.67232,0.24765 -3.23593,1.03065 -1.56361,0.78301 -13.79017,5.61636 -27.17012,10.74079 -14.269254,5.46502 -23.778471,9.60797 -23,10.02058 0.729955,0.38689 8.373543,3.26129 16.98575,6.38756 8.612208,3.12628 20.08721,7.40898 25.5,9.51712 5.41279,2.10814 10.21373,3.88356 10.66876,3.94538 0.45502,0.0618 -1.25447,-2.86561 -3.79886,-6.50541 z m 242.00616,-19.47322 c 15.7437,-2.91038 24.64185,-12.62719 24.64185,-26.90897 0,-16.65593 -8.68945,-23.45314 -36.48424,-28.53933 -16.33627,-2.98938 -19.06408,-3.92544 -22.1595,-7.60415 -2.86999,-3.41078 -3.1961,-6.67302 -1.07678,-10.77133 2.14677,-4.1514 7.73279,-6.37507 17.31292,-6.89189 9.78485,-0.52787 18.43199,0.98615 26.13474,4.5759 3.07801,1.43446 5.93468,2.63572 6.34814,2.66946 0.41347,0.0337 2.07275,-2.7319 3.6873,-6.14586 l 2.93554,-6.20719 -3.1873,-1.94557 c -15.64588,-9.55047 -40.8193,-10.79577 -56.77348,-2.80852 -11.1291,5.57164 -16.63106,16.3417 -13.98437,27.37433 3.13414,13.06457 11.44894,18.20203 36.17621,22.35215 6.63213,1.11311 13.82317,2.72995 15.9801,3.59299 11.12805,4.45256 12.14753,17.55149 1.70267,21.8771 -5.42383,2.24621 -19.61475,3.06496 -26.90208,1.55211 -6.41771,-1.33231 -17.3924,-6.29007 -20.6324,-9.32058 -1.23533,-1.15546 -2.41949,-1.91157 -2.63148,-1.68023 -0.21198,0.23134 -1.78509,3.21301 -3.49579,6.62594 l -3.11036,6.20533 3.24184,2.43045 c 6.28854,4.71459 16.71942,8.83099 25.24185,9.96133 6.48058,0.85953 21.43379,0.6419 27.03462,-0.39347 z m -68.46637,-0.15897 c 0.0375,-0.1375 0.30868,-3.2875 0.60254,-7 l 0.53428,-6.75 H 268.77064 239.6681 v -13.48312 -13.48312 l 25.75,-0.26688 25.75,-0.26688 0.2953,-6.73303 0.29531,-6.73302 -25.79531,-0.26698 -25.7953,-0.26697 v -12 -12 l 27.75,-0.26582 27.75,-0.26582 v -6.98418 -6.98418 h -36 -36 v 47 47 h 36.5 c 20.075,0 36.53071,-0.1125 36.56825,-0.25 z m 127.16809,-32.5 0.26366,-32.75 2.44985,4 c 1.34742,2.2 8.4966,13.1125 15.88707,24.25 l 13.43721,20.25 h 4.70277 4.70278 l 7.02658,-10.75 c 3.86462,-5.9125 11.02419,-16.825 15.91016,-24.25 l 8.88358,-13.5 0.26366,32.75 0.26367,32.75 h 7.3246 7.3246 l 0.66173,-33.16324 c 0.36396,-18.23979 0.66174,-39.38979 0.66174,-47 v -13.83676 h -7.81294 -7.81295 l -10.62475,16.25 c -5.84361,8.9375 -14.14028,21.75851 -18.43705,28.49114 -4.29677,6.73262 -8.03731,12.2409 -8.31231,12.24061 -0.42658,-4.4e-4 -13.10192,-19.19368 -32.5,-49.21211 l -5,-7.73748 -7.75,-0.0161 -7.75,-0.0161 v 47 47 h 7.98634 7.98633 z m 124.07036,22 4.51173,-10.75 24.39897,-0.26705 24.39897,-0.26705 4.78657,11.01705 4.78657,11.01705 h 8.40524 c 4.62289,0 8.40525,-0.19833 8.40525,-0.44074 0,-0.2424 -2.75212,-6.6549 -6.11581,-14.25 -11.14353,-25.16165 -13.56371,-30.63211 -23.14207,-52.30926 -5.22505,-11.825 -10.08376,-22.75284 -10.79715,-24.28409 l -1.29706,-2.78409 -9.43971,0.28409 -9.4397,0.28409 -3.79484,8.5 c -2.08716,4.675 -9.72471,22 -16.97234,38.5 -7.24762,16.5 -14.71286,33.43164 -16.58941,37.62586 -1.87655,4.19422 -3.41191,7.90672 -3.41191,8.25 0,0.34328 3.77887,0.62414 8.39748,0.62414 h 8.39749 z m 19.3965,-45 c 4.6996,-10.8625 8.85723,-20.09579 9.23919,-20.51842 0.38195,-0.42264 2.6431,3.85236 5.02478,9.5 2.38167,5.64763 6.28838,14.65874 8.68157,20.02469 2.39319,5.36595 4.35126,9.97845 4.35126,10.25 0,0.27155 -8.06434,0.49373 -17.92076,0.49373 h -17.92077 z m 90.2445,54 c -0.0979,-0.9625 -0.12619,-8.3875 -0.0629,-16.5 l 0.1152,-14.75 10.25,0.0628 10.25,0.0628 13.37596,16.43722 13.37596,16.43723 h 9.46033 9.46033 l -6.42143,-7.75 c -15.7183,-18.97038 -20.7378,-25.46258 -20.27081,-26.21819 0.27542,-0.44564 1.74251,-1.11696 3.26021,-1.49182 4.45815,-1.10115 11.82803,-6.30953 14.60363,-10.32056 7.98071,-11.53294 7.37826,-27.57288 -1.41064,-37.5576 -2.05162,-2.33076 -6.36347,-5.57067 -9.58188,-7.19979 l -5.85166,-2.96209 -28.79494,-0.31899 -28.79495,-0.31899 0.46189,8.81899 c 0.25403,4.85044 0.49926,26.03149 0.54494,47.06899 l 0.0831,38.25 h 8.06286 c 7.08006,0 8.04116,-0.21331 7.88484,-1.75 z m 0.0523,-61.77701 v -16.72491 l 17.3203,0.42896 c 15.03038,0.37225 17.7733,0.69352 20.74661,2.43003 10.78796,6.30051 10.74962,21.48273 -0.0703,27.83886 -3.08484,1.81218 -5.52798,2.09516 -20.7466,2.40302 l -17.25,0.34895 v -16.72491 z m 90.37852,61.15501 c 0.32743,-1.3046 2.38431,-6.26264 4.57084,-11.01786 l 3.9755,-8.64587 24.19205,0.26787 24.19204,0.26786 4.59552,10.72927 4.59553,10.72928 8.70778,0.0207 8.70779,0.0207 -2.70779,-6.30036 c -1.48928,-3.46515 -10.80778,-24.59969 -20.70778,-46.9656 l -18,-40.66528 -9.50947,-0.0344 -9.50947,-0.0343 -14.17803,32.25 c -7.79792,17.7375 -17.09962,38.8875 -20.67044,47 l -6.49242,14.75 h 8.82151 c 8.44867,0 8.84667,-0.10025 9.41684,-2.372 z m 14.62148,-33.94565 c 0,-0.17471 2.72362,-6.58721 6.05248,-14.25 3.32887,-7.66279 7.23669,-16.75203 8.68404,-20.19831 1.44736,-3.44628 2.98177,-5.91575 3.40982,-5.4877 0.42804,0.42804 2.78102,5.49773 5.22883,11.26596 2.4478,5.76824 6.25527,14.6502 8.46103,19.7377 l 4.01047,9.25 h -17.92334 c -9.85783,0 -17.92333,-0.14294 -17.92333,-0.31765 z"/>
</svg>
