<svg xmlns="http://www.w3.org/2000/svg" viewBox="41.4 103.6 179 182.3" role="img" aria-label="Besmara">
  <path fill="#b56a1e" fill-rule="evenodd" stroke="#16181D" stroke-width="6" paint-order="stroke" stroke-linejoin="round" transform="translate(0.33189932,0.75483882)" d="M 123.19656,265.62736 c -2.5444,-3.63979 -4.46788,-6.7761 -4.27441,-6.96958 0.19348,-0.19347 10.00296,-0.83434 21.79886,-1.42416 44.65918,-2.23302 56.05726,-6.00959 64.18378,-21.26625 1.85036,-3.47386 2.25024,-5.81735 2.25614,-13.2222 0.006,-7.62759 -0.37262,-9.74366 -2.4834,-13.87677 -2.76088,-5.40607 -9.09106,-11.48502 -14.76185,-14.17599 -3.33661,-1.58332 -3.52155,-1.86566 -1.86828,-2.85226 5.91985,-3.53268 10.52145,-7.98522 13.14142,-12.71572 2.68656,-4.85073 2.97928,-6.26354 2.97928,-14.37926 0,-8.11756 -0.29415,-9.53642 -3,-14.47097 -1.83009,-3.33746 -4.9082,-6.90815 -7.89317,-9.15631 -8.0516,-6.06412 -15.19188,-7.7968 -39.06654,-9.47995 -11.57216,-0.81583 -24.29842,-1.72594 -28.28058,-2.02246 l -7.24029,-0.53913 4.61092,-6.46163 c 2.536,-3.55389 4.44414,-6.60631 4.24029,-6.78316 -0.20385,-0.17684 -6.22063,1.87948 -13.37063,4.5696 -7.15,2.69012 -19.412499,7.19178 -27.249999,10.00368 -7.8375,2.81191 -14.25,5.41031 -14.25,5.77421 0,0.36391 9.3375,4.19658 20.75,8.51705 11.412499,4.32047 23.787499,9.09279 27.499999,10.60515 3.7125,1.51237 6.75,2.43132 6.75,2.04212 0,-0.3892 -2.01968,-3.57583 -4.48818,-7.08141 -2.46849,-3.50557 -4.38099,-6.46864 -4.25,-6.58459 0.43085,-0.38137 29.01881,1.4964 39.73818,2.61016 15.35126,1.59502 22.71519,5.67208 24.9815,13.83108 3.21381,11.57011 -2.52275,21.96028 -13.86387,25.11053 -4.1814,1.16148 -68.1199,1.4112 -68.11333,0.26603 0.002,-0.4125 1.80237,-3.12163 4,-6.02029 4.72075,-6.22662 5.05139,-7.80025 1.2457,-5.92865 -1.5125,0.74383 -14.087918,5.57996 -27.945374,10.74697 -13.857457,5.167 -25.045797,9.54413 -24.862979,9.72695 0.659279,0.65928 55.067263,20.901 55.422433,20.61913 0.20024,-0.15891 -1.69719,-3.2376 -4.21651,-6.84152 l -4.58059,-6.55259 23.21651,-0.25 c 48.79099,-0.52539 50.96766,-0.29289 57.73982,6.16746 7.85931,7.49745 7.90695,19.17712 0.11161,27.36286 -5.79834,6.08873 -10.07054,6.84988 -51.88492,9.2441 -6.1875,0.35428 -11.25,0.37413 -11.25,0.0441 0,-0.33002 2.01867,-3.37428 4.48593,-6.76502 2.46726,-3.39074 4.30907,-6.34183 4.09293,-6.55798 -0.21615,-0.21614 -1.67232,0.24765 -3.23593,1.03065 -1.56361,0.78301 -13.79017,5.61636 -27.17012,10.74079 -14.269254,5.46502 -23.778471,9.60797 -23,10.02058 0.729955,0.38689 8.373543,3.26129 16.98575,6.38756 8.612208,3.12628 20.08721,7.40898 25.5,9.51712 5.41279,2.10814 10.21373,3.88356 10.66876,3.94538 0.45502,0.0618 -1.25447,-2.86561 -3.79886,-6.50541 z"/>
</svg>
